<?xml version="1.0" encoding="UTF-8"?>
<svg version="1.1" xmlns="http://www.w3.org/2000/svg" width="500" height="500">
<path d="M0 0 C2.625 2.375 2.625 2.375 5 5 C5.59167969 5.59941406 6.18335938 6.19882813 6.79296875 6.81640625 C21.61437243 22.38318033 26.72848753 40.32918535 26.60522461 61.37670898 C26.35387833 69.61904993 24.9915389 76.96774766 22.19140625 84.70703125 C19.95400947 90.42533772 19.95400947 90.42533772 21.30078125 96.21484375 C21.95946053 97.4620832 22.63098229 98.7025918 23.3125 99.9375 C24.05042891 101.34579976 24.78459105 102.75607759 25.515625 104.16796875 C25.91330078 104.93286621 26.31097656 105.69776367 26.72070312 106.48583984 C29.11344354 111.18821404 31.34514153 115.96301458 33.5625 120.75 C34.0160083 121.70253662 34.4695166 122.65507324 34.93676758 123.63647461 C35.55781372 124.9843103 35.55781372 124.9843103 36.19140625 126.359375 C36.56467041 127.15827148 36.93793457 127.95716797 37.32250977 128.78027344 C38.1048808 131.34363106 37.99223698 132.53302907 37 135 C35 137 35 137 32.4140625 137.2890625 C28.12711723 136.92609459 24.43490997 135.74640349 20.375 134.375 C18.69969074 133.82668078 17.02389102 133.27985832 15.34765625 132.734375 C14.47898926 132.45013672 13.61032227 132.16589844 12.71533203 131.87304688 C8.10138815 130.38954901 3.45745943 129.00769727 -1.1875 127.625 C-2.50645264 127.23127197 -2.50645264 127.23127197 -3.85205078 126.82958984 C-5.90099367 126.21847285 -7.950438 125.60903739 -10 125 C-10 124.01 -10 123.02 -10 122 C-8.30860001 120.59123604 -6.50481911 119.5271923 -4.62890625 118.37890625 C-2.90076776 117.11242101 -2.90076776 117.11242101 -2.1796875 115.2265625 C-1.56740161 107.63954175 -5.86218014 99.05897104 -10.23828125 93.0625 C-18.4547563 83.44321214 -27.68596739 78.00117097 -40.29882812 76.77685547 C-54.45091857 76.07652709 -67.79758151 77.46369463 -79 87 C-88.03176089 95.81629145 -91.10805955 105.04767166 -94 117 C-105.13016391 112.31229583 -112.78753872 97.55824299 -117.3125 87 C-117.90747465 85.34464832 -118.46919671 83.67703068 -119 82 C-119.29777344 81.07445312 -119.59554687 80.14890625 -119.90234375 79.1953125 C-125.33393652 59.52143271 -122.29779552 39.70536925 -112.62890625 22.02294922 C-102.00439076 3.5288998 -86.15160544 -7.5815199 -66 -14 C-43.53559072 -19.64535285 -18.00890409 -14.80810278 0 0 Z M-60 22 C-60.845625 22.37125 -61.69125 22.7425 -62.5625 23.125 C-66.97567757 26.51975198 -69.26412201 31.79236604 -71 37 C-71.7043987 46.2655521 -70.73546289 52.77693787 -64.875 60.1875 C-59.85777735 65.60441754 -54.37678503 68.13401997 -47 68.5 C-39.80083395 68.18650599 -33.0930511 65.0930511 -28 60 C-23.08755939 52.88945037 -22.34303305 46.47018109 -23 38 C-24.59990429 31.01218272 -27.98119177 26.16948365 -34 22.25 C-41.65208993 17.52722574 -52.39969441 16.99492071 -60 22 Z " fill="#889D37" transform="translate(195,92)"/>
<path d="M0 0 C0.59296875 0.49757813 1.1859375 0.99515625 1.796875 1.5078125 C13.76824816 12.4358091 22.08879817 29.85204019 23.20532227 45.96264648 C23.30389762 49.24840775 23.32203907 52.52533702 23.3125 55.8125 C23.32861328 56.91142578 23.34472656 58.01035156 23.36132812 59.14257812 C23.36765783 69.8840793 21.2910559 79.5860573 16.3125 89.125 C15.96799805 89.80022705 15.62349609 90.4754541 15.26855469 91.17114258 C12.17993762 97.03125443 8.37145834 102.03159881 4 107 C2.98679687 108.33998047 2.98679687 108.33998047 1.953125 109.70703125 C0 112 0 112 -3 113 C-3.350625 111.80375 -3.70125 110.6075 -4.0625 109.375 C-8.54538438 96.11487937 -14.29762317 85.2780156 -27.0625 78.625 C-35.05448288 74.78455722 -42.05084058 73.65763749 -50.8125 73.6875 C-51.74642578 73.67138672 -52.68035156 73.65527344 -53.64257812 73.63867188 C-65.24578478 73.63061968 -75.67880118 77.11474592 -84.265625 85.109375 C-91.23588287 92.59594827 -96.17618284 101.24795491 -95.9375 111.75 C-94.62458594 114.90099373 -92.51314295 116.7446153 -90 119 C-91 122 -91 122 -94.24707031 123.82519531 C-95.68528432 124.50454354 -97.12946001 125.17135769 -98.578125 125.828125 C-99.34171326 126.18138855 -100.10530151 126.5346521 -100.89202881 126.89862061 C-102.51039286 127.64343377 -104.13126582 128.38281564 -105.75439453 129.1171875 C-108.23412447 130.24279374 -110.70105011 131.39351044 -113.16796875 132.546875 C-114.74147545 133.2671825 -116.3156732 133.9859827 -117.890625 134.703125 C-118.62726379 135.04885559 -119.36390259 135.39458618 -120.12286377 135.75079346 C-124.1223597 137.53347017 -126.77746285 138.49578361 -131 137 C-132.42910722 132.49409299 -131.01418874 129.15321862 -129.5078125 124.83984375 C-129.24241669 124.05356094 -128.97702087 123.26727814 -128.70358276 122.45716858 C-127.85386437 119.94715234 -126.989685 117.44239488 -126.125 114.9375 C-125.54981763 113.24707236 -124.97558768 111.55632034 -124.40234375 109.86523438 C-123.35110386 106.76869954 -122.29463096 103.6740728 -121.23095703 100.58178711 C-118.79074253 93.48135337 -117.78772517 88.34145287 -120.875 81.375 C-127.6068018 65.83456392 -126.51590982 44.97811579 -120.8125 29.3125 C-112.77344954 10.25179485 -100.01368854 -4.53122505 -80.875 -12.875 C-52.77857777 -23.62429082 -23.18202718 -19.90822945 0 0 Z M-71 25 C-75.57366575 31.6845884 -76.11356648 39.1171215 -75 47 C-72.32633278 54.93818896 -66.80174504 59.84806884 -59.6875 63.875 C-52.95001964 65.93050248 -46.39184431 65.85475693 -39.87890625 63.0390625 C-33.36243415 59.4353586 -28.57601218 54.28863146 -26.41796875 47.046875 C-24.85752894 39.405095 -26.21542697 32.78303297 -30 26 C-34.72671694 19.43023958 -41.19984677 16.04575253 -49.1015625 14.62109375 C-57.44711189 14.10573114 -65.65905469 18.82885593 -71 25 Z " fill="#F7E0B5" transform="translate(404,95)"/>
<path d="M0 0 C14.78304433 11.3544467 24.82110409 28.61395339 28 47 C28.27303043 51.66373628 28.2772923 56.32911199 28.3125 61 C28.34150391 62.25167969 28.37050781 63.50335938 28.40039062 64.79296875 C28.52763132 83.68331841 20.451519 100.11521263 8 114 C7.34 114 6.68 114 6 114 C5.34 115.32 4.68 116.64 4 118 C3.01 118 2.02 118 1 118 C0.88785156 116.80117188 0.88785156 116.80117188 0.7734375 115.578125 C-0.69500521 103.31230944 -5.22839396 92.29347705 -14.9921875 84.38671875 C-24.13231924 77.83249617 -33.58949439 75.25278486 -44.75 75.375 C-45.79478516 75.38265381 -46.83957031 75.39030762 -47.91601562 75.39819336 C-59.48456027 75.72777898 -69.8848888 78.73650462 -78.359375 87.08203125 C-86.43307853 96.52057513 -89.44029234 105.79758122 -91 118 C-97.01652326 116.97732386 -100.66975642 112.14543786 -104.1640625 107.42871094 C-116.38402786 89.95861146 -123.09638324 70.420594 -119.35546875 48.9375 C-118.87436985 46.44138131 -118.32647197 43.97835209 -117.75390625 41.5 C-117.50511719 40.345 -117.25632812 39.19 -117 38 C-116.67386719 36.78699219 -116.34773438 35.57398438 -116.01171875 34.32421875 C-115.30108829 28.13658853 -119.25605092 22.94991578 -122.25 17.8125 C-123.14912109 16.21245117 -123.14912109 16.21245117 -124.06640625 14.58007812 C-126.20210023 10.79407516 -128.34717719 7.02736994 -130.67871094 3.3581543 C-132.35162247 0.37244616 -132.37461294 -1.62848354 -132 -5 C-130 -7 -130 -7 -126.77368164 -7.25024414 C-122.99470623 -6.99964895 -120.16811292 -6.28358244 -116.62109375 -4.99609375 C-115.45255859 -4.58552734 -114.28402344 -4.17496094 -113.08007812 -3.75195312 C-110.64698832 -2.87395343 -108.21469774 -1.99373585 -105.78320312 -1.11132812 C-104.61595703 -0.70205078 -103.44871094 -0.29277344 -102.24609375 0.12890625 C-101.19091553 0.51119385 -100.1357373 0.89348145 -99.04858398 1.28735352 C-95.62971195 2.08655969 -93.38307892 1.85764788 -90 1 C-88.04969286 -0.15281334 -88.04969286 -0.15281334 -86.375 -1.6875 C-60.85957458 -21.76284415 -25.32781701 -18.39991412 0 0 Z M-64 27 C-64.7425 27.825 -65.485 28.65 -66.25 29.5 C-69.83939016 34.62770022 -69.50570335 40.93155977 -69 47 C-67.01159551 53.78396825 -62.80070939 59.39567514 -56.96484375 63.39453125 C-50.35812105 66.78782077 -42.85035038 67.39406329 -35.703125 65.33984375 C-29.83489171 62.71278582 -24.67628226 58.47929376 -21.86328125 52.640625 C-19.37211186 45.38128976 -19.81529809 39.49487063 -22.25 32.3125 C-25.87527207 25.45037787 -30.37090833 20.74816511 -37.88671875 18.4140625 C-48.70218205 16.29495139 -56.73828436 18.72971274 -64 27 Z " fill="#E9572E" transform="translate(398,277)"/>
<path d="M0 0 C0.33 0.33 0.66 0.66 1 1 C0.57044843 6.51102343 -0.54887637 11.1144019 -2.50390625 16.31640625 C-3.00206236 17.6711838 -3.50010589 19.02600275 -3.99804688 20.38085938 C-4.78031464 22.47747461 -5.5663138 24.57262354 -6.35522461 26.66674805 C-7.12268396 28.7132266 -7.87627368 30.76443741 -8.62890625 32.81640625 C-9.3106189 34.63313843 -9.3106189 34.63313843 -10.00610352 36.48657227 C-11.74033202 42.61707641 -11.13748124 47.38292727 -9.0625 53.3125 C-7.23684711 58.97008864 -6.21553645 64.07274752 -6 70 C-5.9484375 70.99515625 -5.896875 71.9903125 -5.84375 73.015625 C-5.23743657 93.93343828 -13.29303094 111.96016919 -27.05859375 127.29296875 C-30.27430548 130.6423899 -30.27430548 130.6423899 -32 132 C-32.66 132 -33.32 132 -34 132 C-34.20753906 130.90042969 -34.41507812 129.80085937 -34.62890625 128.66796875 C-36.95336344 117.19900085 -40.29426142 106.84851201 -49.9140625 99.33984375 C-63.52698336 90.59596387 -77.00413396 87.37424787 -93 90.27734375 C-97.34970099 91.32512328 -101.09725946 92.82860462 -105 95 C-105.74894531 95.39832031 -106.49789062 95.79664063 -107.26953125 96.20703125 C-117.38261849 102.18529577 -122.90781945 111.91697391 -126 123 C-126.75601697 125.99365341 -127.40364723 128.9685401 -128 132 C-137.42651445 128.31607481 -144.78476239 114.59908471 -149 106 C-157.01059408 87.39231909 -156.81865024 65.9175967 -150 47 C-141.23910221 26.91517582 -126.15051074 11.74979339 -106.00390625 3.06640625 C-87.34524819 -3.55753868 -67.72842756 -2.28350032 -49.71875 5.65625 C-46.39333876 7.29984406 -43.23549513 9.14773456 -40.1328125 11.1796875 C-36.30722084 12.65106891 -32.82272859 11.34781331 -29.16333008 9.80078125 C-28.20837646 9.30964844 -27.25342285 8.81851562 -26.26953125 8.3125 C-25.21958984 7.77882813 -24.16964844 7.24515625 -23.08789062 6.6953125 C-22.00701172 6.13585937 -20.92613281 5.57640625 -19.8125 5 C-17.65316966 3.89421904 -15.49304943 2.78997878 -13.33203125 1.6875 C-11.90467651 0.95080078 -11.90467651 0.95080078 -10.44848633 0.19921875 C-6.05149516 -1.954338 -4.4020294 -2.08517182 0 0 Z M-98.8828125 38.9375 C-104.61867652 46.25280483 -105.91485659 52.79278945 -105 62 C-103.2549056 69.16814094 -99.12088406 74.00952965 -93 78 C-86.19068762 81.2876577 -79.80936171 81.94927832 -72.5 79.875 C-66.00952116 77.52690868 -60.97845706 73.2878538 -58 67 C-56.8360688 63.39345262 -56.7986816 59.89782418 -56.75 56.125 C-56.71132812 54.33449219 -56.71132812 54.33449219 -56.671875 52.5078125 C-57.21861545 46.66289675 -60.0078434 42.20794885 -64 38 C-74.87804147 30.18278396 -88.81724927 28.57957601 -98.8828125 38.9375 Z " fill="#1CB0CB" transform="translate(229,263)"/>
<path d="M0 0 C2 1 2 1 3.09765625 4.28515625 C4.38104523 9.96008273 4.42440566 15.6409326 4.4375 21.4375 C4.44064209 22.5824292 4.44378418 23.7273584 4.44702148 24.90698242 C4.29742473 35.6095399 1.84376395 44.47383162 -1.90625 54.3984375 C-2.06087366 58.68924417 0.02921931 62.04955973 1.9375 65.8125 C2.32357422 66.60076172 2.70964844 67.38902344 3.10742188 68.20117188 C4.05931015 70.14020354 5.02803338 72.07095465 6 74 C1.13275764 72.37758588 -0.29366938 67.70858005 -2.48950195 63.35058594 C-4.41483475 59.195509 -5.65408155 56.29863618 -4.1875 51.75 C-3.84412598 51.03062256 -3.50075195 50.31124512 -3.14697266 49.57006836 C0.76522294 40.80385231 1.43666097 31.84804446 1.25 22.375 C1.24226562 20.79332031 1.24226562 20.79332031 1.234375 19.1796875 C1.17058374 12.73677014 0.7664245 6.39697098 0 0 Z " fill="#9FAE44" transform="translate(217,128)"/>
<path d="M0 0 C2.79599742 2.08864349 4.24947382 3.84599182 5.625 7.0625 C2.625 6.0625 2.625 6.0625 0.4375 3.75 C-4.64253593 -1.10425655 -9.17681532 -3.17312625 -16.25 -3.5 C-22.47741144 -3.24838742 -27.41352253 -1.77096838 -32.375 2.0625 C-38.04893332 8.66090311 -39.7200349 14.31273375 -39.66796875 22.9140625 C-39.23880881 27.52610136 -37.58939167 31.05396618 -35.375 35.0625 C-34.70463735 36.39397893 -34.03689201 37.72679 -33.375 39.0625 C-38.52727792 34.18872359 -41.94456249 29.92975489 -42.578125 22.765625 C-42.74052164 14.26686774 -41.00380812 8.01069613 -35.18359375 1.66796875 C-24.46298383 -7.84859859 -11.46480066 -8.18914333 0 0 Z " fill="#23BDD8" transform="translate(164.375,298.9375)"/>
<path d="M0 0 C0.66 0 1.32 0 2 0 C3.45056013 6.28405717 3.2641107 12.58035227 3.3125 19 C3.34150391 20.25167969 3.37050781 21.50335938 3.40039062 22.79296875 C3.51311927 39.5288367 -2.5814464 55.61028076 -14 68 C-14.99 68.495 -14.99 68.495 -16 69 C-14.67758831 65.3128817 -13.04092406 62.49550463 -10.6875 59.375 C1.87186885 41.69788418 3.03979042 20.91081637 0 0 Z " fill="#F16435" transform="translate(423,319)"/>
<path d="M0 0 C-1.01578125 0.47308594 -2.0315625 0.94617188 -3.078125 1.43359375 C-12.23114718 5.79361053 -20.12804043 10.55038827 -28 17 C-28.68320313 17.55429687 -29.36640625 18.10859375 -30.0703125 18.6796875 C-31.39424791 19.76962502 -32.7005273 20.88100962 -34 22 C-34 19 -34 19 -32.41796875 17.203125 C-9.25060357 -3.08353452 -9.25060357 -3.08353452 0 0 Z " fill="#2BB5CE" transform="translate(129,266)"/>
<path d="M0 0 C2.80020263 1.75643973 4.79561569 3.72169786 6.94921875 6.22265625 C6.28921875 6.55265625 5.62921875 6.88265625 4.94921875 7.22265625 C4.94921875 6.56265625 4.94921875 5.90265625 4.94921875 5.22265625 C-3.07472241 0.87635479 -9.924759 -0.75559155 -19.05078125 0.22265625 C-22.43672465 1.45501898 -22.43672465 1.45501898 -25.05078125 3.22265625 C-26.70988129 3.9079367 -28.37410689 4.58157488 -30.05078125 5.22265625 C-21.84269819 -3.98034597 -10.9802437 -5.49997844 0 0 Z " fill="#A1B241" transform="translate(160.05078125,111.77734375)"/>
<path d="M0 0 C0.66 0.33 1.32 0.66 2 1 C1.65066406 1.44730469 1.30132812 1.89460938 0.94140625 2.35546875 C-4.02324725 8.95156646 -4.73063521 14.80919476 -4 23 C-2.78061785 27.36454716 -0.42067909 31.19607572 2 35 C-1.97697791 33.72168567 -3.25108607 31.31875268 -5.16796875 27.8515625 C-7.88500951 21.8051901 -7.91773651 14.97046128 -5.75 8.75 C-4.33880196 5.37392813 -2.46639082 2.72153469 0 0 Z " fill="#F16234" transform="translate(334,301)"/>
<path d="M0 0 C-1.01707031 0.49306641 -1.01707031 0.49306641 -2.0546875 0.99609375 C-8.56016538 4.32091555 -13.72222266 8.09946709 -19.00390625 13.14453125 C-21 15 -21 15 -23 16 C-20.79868187 8.79799965 -14.10671806 4.41831871 -7.82421875 0.71875 C-4.65057882 -0.74914341 -3.39294167 -1.13098056 0 0 Z " fill="#A9B63E" transform="translate(131,170)"/>
<path d="M0 0 C0.66 0 1.32 0 2 0 C5.19164467 6.83923859 7.73226358 12.38445882 7 20 C8.32 19.67 9.64 19.34 11 19 C10.34 20.32 9.68 21.64 9 23 C8.01 23 7.02 23 6 23 C5.90203125 22.17757813 5.8040625 21.35515625 5.703125 20.5078125 C4.71591918 13.13781046 3.13712459 6.74634074 0 0 Z " fill="#EF653E" transform="translate(393,372)"/>
<path d="M0 0 C0.66 0.66 1.32 1.32 2 2 C1.13375 2.639375 0.2675 3.27875 -0.625 3.9375 C-4.04816605 6.76990689 -6.25353342 10.07793053 -8.60546875 13.81640625 C-9.97586915 15.96221528 -11.44887755 17.98216814 -13 20 C-12.57028001 11.40560015 -5.89260277 5.61200264 0 0 Z " fill="#EF6333" transform="translate(322,359)"/>
<path d="M0 0 C0.33 0 0.66 0 1 0 C0.67 4.62 0.34 9.24 0 14 C-4.53460431 12.86634892 -5.90024653 11.35806626 -9 8 C-8.67 7.34 -8.34 6.68 -8 6 C-6.35 7.65 -4.7 9.3 -3 11 C-2.01 7.37 -1.02 3.74 0 0 Z " fill="#F0663E" transform="translate(307,381)"/>
<path d="M0 0 C0 3 0 3 -2.40625 5.69921875 C-3.4299968 6.70302243 -4.4616054 7.69885649 -5.5 8.6875 C-6.02464844 9.19861328 -6.54929687 9.70972656 -7.08984375 10.23632812 C-8.38660904 11.49772708 -9.69246117 12.74977212 -11 14 C-11 10.09572976 -9.78171026 9.2747714 -7.1875 6.4375 C-6.47980469 5.65246094 -5.77210937 4.86742188 -5.04296875 4.05859375 C-3 2 -3 2 0 0 Z " fill="#8EA045" transform="translate(101,92)"/>
<path d="M0 0 C0.66 0.33 1.32 0.66 2 1 C-0.64 3.64 -3.28 6.28 -6 9 C-6 6 -6 6 -3.5625 3.375 C-2.716875 2.59125 -1.87125 1.8075 -1 1 C-0.67 0.67 -0.34 0.34 0 0 Z " fill="#9CAB3E" transform="translate(115,177)"/>
<path d="M0 0 C0.99 0.495 0.99 0.495 2 1 C2.6328125 3.06640625 2.6328125 3.06640625 3.125 5.5625 C3.29257813 6.38878906 3.46015625 7.21507812 3.6328125 8.06640625 C3.75398437 8.70449219 3.87515625 9.34257812 4 10 C3.01 10 2.02 10 1 10 C0.67 6.7 0.34 3.4 0 0 Z " fill="#AAB83E" transform="translate(217,128)"/>
<path d="M0 0 C1.31878578 0.76002917 2.6298684 1.53343653 3.9375 2.3125 C4.66839844 2.74175781 5.39929688 3.17101562 6.15234375 3.61328125 C8 5 8 5 9 8 C8.34 8 7.68 8 7 8 C7 7.34 7 6.68 7 6 C6.401875 5.71125 5.80375 5.4225 5.1875 5.125 C3 4 3 4 0 2 C0 1.34 0 0.68 0 0 Z " fill="#96AA3D" transform="translate(158,111)"/>
</svg>
